<?xml version="1.0" standalone="no"?>
<!DOCTYPE svg PUBLIC "-//W3C//DTD SVG 20010904//EN"
 "http://www.w3.org/TR/2001/REC-SVG-20010904/DTD/svg10.dtd">
<svg version="1.0" xmlns="http://www.w3.org/2000/svg"
 width="578.000000pt" height="578.000000pt" viewBox="0 0 578.000000 578.000000"
 preserveAspectRatio="xMidYMid meet">
<metadata>
Created by potrace 1.14, written by Peter Selinger 2001-2017
</metadata>
<g transform="translate(0.000000,578.000000) scale(0.100000,-0.100000)"
fill="#000000" stroke="none">
<path d="M0 2890 l0 -2890 2890 0 2890 0 0 2890 0 2890 -2890 0 -2890 0 0
-2890z m3206 2141 c354 -66 663 -202 934 -409 296 -227 526 -516 655 -820 119
-282 175 -568 175 -888 0 -149 -5 -209 -25 -327 -75 -436 -232 -766 -532
-1118 -13 -15 14 -44 242 -270 140 -139 254 -256 253 -261 -6 -16 -521 -539
-529 -536 -8 3 -119 111 -444 430 l-140 138 -98 -41 c-291 -120 -613 -178
-922 -166 -158 6 -243 19 -440 68 -375 95 -753 314 -1025 595 -332 343 -532
765 -590 1244 -13 109 -13 402 0 510 42 339 153 653 317 894 184 271 356 442
610 609 266 174 479 265 776 331 187 42 219 45 452 41 169 -2 246 -8 331 -24z"/>
<path d="M2675 4245 c-427 -69 -774 -319 -979 -705 -55 -104 -121 -302 -135
-405 -16 -111 -13 -355 4 -463 69 -423 370 -828 746 -1001 230 -105 482 -149
694 -120 136 18 152 -12 -157 292 -301 297 -314 314 -339 450 -11 57 -10 78 6
152 20 95 51 151 117 210 79 72 192 103 308 84 129 -20 141 -30 543 -425 159
-156 294 -284 300 -284 16 1 83 87 140 180 223 364 274 789 141 1172 -73 208
-159 345 -313 498 -144 143 -283 232 -477 305 -168 64 -419 89 -599 60z"/>
</g>
</svg>
